<svg xmlns="http://www.w3.org/2000/svg" viewBox="0 0 800 800" width="100%" height="100%">
  <g transform="translate(400, 430)">
    <g>
      <polygon points="0,-180 -40,-110 0,-80 40,-110" fill="#FFFFFF" stroke="#121212" stroke-width="4" stroke-linejoin="round"/>
      <polygon points="0,-220 -15,-190 0,-180 15,-190" fill="#CCCCCC" stroke="#121212" stroke-width="3" stroke-linejoin="round"/>
      <polygon points="-40,-110 -110,-130 -70,-70 -30,-85" fill="#777777" stroke="#FFFFFF" stroke-width="3" stroke-linejoin="round"/>
      <polygon points="40,-110 110,-130 70,-70 30,-85" fill="#777777" stroke="#FFFFFF" stroke-width="3" stroke-linejoin="round"/>
      <polygon points="0,-80 -25,40 0,160 25,40" fill="#FFFFFF" stroke="#121212" stroke-width="5" stroke-linejoin="round"/>
      <polygon points="0,-40 -12,30 0,110 12,30" fill="#121212"/>
    </g>

    <g transform="rotate(120)">
      <polygon points="0,-180 -40,-110 0,-80 40,-110" fill="#FFFFFF" stroke="#121212" stroke-width="4" stroke-linejoin="round"/>
      <polygon points="0,-220 -15,-190 0,-180 15,-190" fill="#CCCCCC" stroke="#121212" stroke-width="3" stroke-linejoin="round"/>
      <polygon points="-40,-110 -110,-130 -70,-70 -30,-85" fill="#777777" stroke="#FFFFFF" stroke-width="3" stroke-linejoin="round"/>
      <polygon points="40,-110 110,-130 70,-70 30,-85" fill="#777777" stroke="#FFFFFF" stroke-width="3" stroke-linejoin="round"/>
      <polygon points="0,-80 -25,40 0,160 25,40" fill="#FFFFFF" stroke="#121212" stroke-width="5" stroke-linejoin="round"/>
      <polygon points="0,-40 -12,30 0,110 12,30" fill="#121212"/>
    </g>

    <g transform="rotate(240)">
      <polygon points="0,-180 -40,-110 0,-80 40,-110" fill="#FFFFFF" stroke="#121212" stroke-width="4" stroke-linejoin="round"/>
      <polygon points="0,-220 -15,-190 0,-180 15,-190" fill="#CCCCCC" stroke="#121212" stroke-width="3" stroke-linejoin="round"/>
      <polygon points="-40,-110 -110,-130 -70,-70 -30,-85" fill="#777777" stroke="#FFFFFF" stroke-width="3" stroke-linejoin="round"/>
      <polygon points="40,-110 110,-130 70,-70 30,-85" fill="#777777" stroke="#FFFFFF" stroke-width="3" stroke-linejoin="round"/>
      <polygon points="0,-80 -25,40 0,160 25,40" fill="#FFFFFF" stroke="#121212" stroke-width="5" stroke-linejoin="round"/>
      <polygon points="0,-40 -12,30 0,110 12,30" fill="#121212"/>
    </g>

    <polygon points="0,-15 13,8 -13,8" fill="#FFFFFF"/>
  </g>
</svg>
